<svg class="svg-icon" style="width: 1em; height: 1em;vertical-align: middle;fill: currentColor;overflow: hidden;" viewBox="0 0 1024 1024" version="1.1"
    xmlns="http://www.w3.org/2000/svg">
    <path d="M512 512m-448 0a448 448 0 1 0 896 0 448 448 0 1 0-896 0Z" fill="#F0F0F0" />
    <path d="M314 398h396v348c0 17.673-14.327 32-32 32H346c-17.673 0-32-14.327-32-32V398z" fill="#B8BFCC" />
    <path d="M604 448m12 0l18 0q12 0 12 12l0 256q0 12-12 12l-18 0q-12 0-12-12l0-256q0-12 12-12Z" fill="#757982" />
    <path d="M491 448m12 0l18 0q12 0 12 12l0 256q0 12-12 12l-18 0q-12 0-12-12l0-256q0-12 12-12Z" fill="#757982" />
    <path d="M378 448m12 0l18 0q12 0 12 12l0 256q0 12-12 12l-18 0q-12 0-12-12l0-256q0-12 12-12Z" fill="#757982" />
    <path d="M288 326m12 0l424 0q12 0 12 12l0 48q0 12-12 12l-424 0q-12 0-12-12l0-48q0-12 12-12Z" fill="#45525E" />
    <path d="M585 326v-52c0-9.941-8.059-18-18-18H457c-9.941 0-18 8.059-18 18v52h-36v-66c0-22.091 17.909-40 40-40h138c22.091 0 40 17.909 40 40v66h-36z" fill="#53677A" />
</svg>